<?xml version="1.0" encoding="utf-8"?><svg width="72" height="56" viewBox="0 0 72 56" xmlns="http://www.w3.org/2000/svg" xmlns:xlink="http://www.w3.org/1999/xlink"><svg width="20" height="20" fill="none" viewBox="-4 -4 20 20" id="ico_close" x="52" xmlns="http://www.w3.org/2000/svg"><path fill-rule="evenodd" clip-rule="evenodd" d="M5.286 5.994L0 .707.707 0l5.287 5.286L11.28 0l.707.707-5.286 5.287 5.286 5.286-.707.707-5.286-5.286-5.287 5.286L0 11.28l5.286-5.286z" fill="#939396"/></svg><svg width="20" height="20" fill="none" viewBox="-4 -4 20 20" id="ico_close_over" y="36" xmlns="http://www.w3.org/2000/svg"><path fill-rule="evenodd" clip-rule="evenodd" d="M5.286 5.994L0 .707.707 0l5.287 5.286L11.28 0l.707.707-5.286 5.287 5.286 5.286-.707.707-5.286-5.286-5.287 5.286L0 11.28l5.286-5.286z" fill="#939396"/><path fill-rule="evenodd" clip-rule="evenodd" d="M5.286 5.994L0 .707.707 0l5.287 5.286L11.28 0l.707.707-5.286 5.287 5.286 5.286-.707.707-5.286-5.286-5.287 5.286L0 11.28l5.286-5.286z" fill="#000" fill-opacity=".1"/></svg><svg width="27" height="36" fill="none" viewBox="-4 -4 27 36" id="ico_del" xmlns="http://www.w3.org/2000/svg"><path d="M18.3 10.5v7a2.3 2.3 0 01-2.3 2.3H7.819a4.3 4.3 0 01-3.283-1.522L1.628 14.84a1.3 1.3 0 010-1.68l2.908-3.438A4.3 4.3 0 017.82 8.2H16a2.3 2.3 0 012.3 2.3z" stroke="#77777A" stroke-width="1.4" stroke-linejoin="round"/><path d="M13 12l-2 2m0 0l-2 2m2-2l2 2m-2-2l-2-2" stroke="#77777A" stroke-width="1.5" stroke-linecap="round"/></svg><svg width="25" height="36" fill="none" viewBox="-4 -4 25 36" id="ico_shift" x="27" xmlns="http://www.w3.org/2000/svg"><path fill-rule="evenodd" clip-rule="evenodd" d="M6.5 14.384V19c0 .056.044.1.098.1h3.804a.099.099 0 00.098-.1v-4.615h3.851l-5.255-5.31a.575.575 0 00-.821 0l-5.627 5.31H6.5zm-4.327 1.401c-1.047 0-1.567-1.302-.822-2.056l5.966-5.654a1.915 1.915 0 012.737 0l5.595 5.654c.745.754.225 2.056-.821 2.056h-2.963v3.214c0 .83-.655 1.501-1.463 1.501H6.598c-.808 0-1.463-.672-1.463-1.5v-3.215H2.173z" fill="#666"/></svg></svg>